<svg width="512" height="512" viewBox="0 0 512 512" fill="none" xmlns="http://www.w3.org/2000/svg">
<g clip-path="url(#clip0_150_525)">
<path d="M42.3945 397.458L152.907 428.128C186.629 437.487 221.314 442.166 256 442.166C290.685 442.166 325.371 437.487 359.092 428.128L469.605 397.458V355.822H42.3945V397.458ZM500.895 238.43C512.281 221.354 515.066 200.402 508.536 180.945C502.007 161.487 487.146 146.456 467.765 139.704L277.665 73.4833C263.691 68.6165 248.305 68.6165 234.334 73.4833L44.2354 139.704C24.8544 146.456 9.99314 161.487 3.46348 180.944C-3.06619 200.401 -0.281334 221.354 11.1041 238.43L29.3672 265.822H482.632L500.895 238.43ZM287.268 221.591L256 205.199L224.731 221.592L230.659 186.787L205.405 162.114L240.338 156.998L256 125.355L271.662 156.998L306.594 162.114L281.341 186.787L287.268 221.591ZM42.3945 295.821H469.604V325.823H42.3945V295.821Z" fill="#2130FF"/>
</g>
<defs>
<clipPath id="clip0_150_525">
<rect width="512" height="512" fill="white"/>
</clipPath>
</defs>
</svg>
